<svg xmlns="http://www.w3.org/2000/svg" xmlns:xlink="http://www.w3.org/1999/xlink" width="600" height="1200" viewBox="-45 -28 90 180" fill="#fcd116">
	<title>Flag of the Philippines — vertical</title>
	<path fill="#0038a8" d="m-45-28v180H0L44 0z"/>
	<path fill="#ce1126" d="m0 0v152h45V-28z"/>
	<path fill="#fff" d="m0 49.942L45-28h-90z"/>
	<circle r="9"/>
	<g id="c">
		<g id="b">
			<path id="a" d="m0 0-3.164-15.909.945-.946zl-1.169-17.831L0-19l1.169 1.169zl2.219-16.855.945.946z"/>
			<use transform="scale(-1)" xlink:href="#a"/>
		</g>
		<use transform="rotate(90)" xlink:href="#b"/>
	</g>
	<use transform="rotate(45)" xlink:href="#c"/>
	<path id="s" d="m0 40.942 1.176-3.382L4.755 37.487l-2.853-2.163 1.037-3.427L0 33.942l-2.939-2.045 1.037 3.427-2.853 2.163L-1.176 37.56z"/>
	<use transform="rotate(120,0,-2.019)" xlink:href="#s"/>
	<use transform="rotate(240,0,-2.019)" xlink:href="#s"/>
</svg>
